Coordinates
version=1
nRows=13
nColumns=40
inDegrees=yes

Units are S.I. units (second, meters, Newtons, ...)
Angles are in degrees.

endheader
time	pelvis_tilt	pelvis_list	pelvis_rotation	pelvis_tx	pelvis_ty	pelvis_tz	hip_flexion_r	hip_adduction_r	hip_rotation_r	knee_angle_r	knee_angle_r_beta	ankle_angle_r	subtalar_angle_r	mtp_angle_r	hip_flexion_l	hip_adduction_l	hip_rotation_l	knee_angle_l	knee_angle_l_beta	ankle_angle_l	subtalar_angle_l	mtp_angle_l	lumbar_extension	lumbar_bending	lumbar_rotation	arm_flex_r	arm_add_r	arm_rot_r	elbow_flex_r	pro_sup_r	wrist_flex_r	wrist_dev_r	arm_flex_l	arm_add_l	arm_rot_l	elbow_flex_l	pro_sup_l	wrist_flex_l	wrist_dev_l
     44.08828571	     -5.18793032	     -5.85176043	      5.59647045	      0.79473826	      0.92684524	      0.50288279	     14.24064649	      3.82089623	    -12.71302171	     17.49655043	     17.49655043	     10.59780260	     -6.36557345	     -4.42053314	     40.74107534	     -9.88059536	      5.50387297	     64.98415908	     64.98415908	      4.13668343	    -19.28495932	     16.92315179	    -10.92801745	      4.16472820	      1.12769563	     24.65876466	    -21.42410275	     -1.12656590	     83.98915584	     44.67519232	      0.00000000	      0.00000000	      2.74805120	     -9.89986936	    -16.61688431	     36.47500270	     46.76500045	      0.00000000	      0.00000000
     44.10157143	     -5.33713813	     -5.84800269	      5.89495737	      0.79324787	      0.92741074	      0.50308500	     13.54746714	      3.90128277	    -13.09785893	     16.57841835	     16.57841835	     10.63860055	     -5.80780528	     -4.40143666	     41.43680788	     -9.59107419	      5.32225802	     61.96140243	     61.96140243	      5.01383378	    -19.27161218	     17.29333754	    -11.13834984	      4.16123975	      0.88339904	     26.56710734	    -20.62265978	     -0.92112585	     86.19048515	     44.61620655	      0.00000000	      0.00000000	      2.44648675	     -9.87323981	    -16.60333977	     35.56019712	     46.74954018	      0.00000000	      0.00000000
     44.11485714	     -5.70774108	     -5.76023704	      6.09951010	      0.79169365	      0.92741236	      0.50312279	     13.34174553	      3.82766239	    -13.25696681	     16.14430796	     16.14430796	     10.76709252	     -5.64174147	     -4.41803516	     42.09244515	     -9.13135230	      5.16435106	     58.51837588	     58.51837588	      5.74986649	    -19.19675624	     17.41192380	    -11.04858611	      4.01855632	      1.31405742	     28.27742532	    -20.45663015	     -0.92197006	     87.21253650	     44.59378620	      0.00000000	      0.00000000	      2.35494499	     -9.59416135	    -16.55386421	     35.27826052	     46.73838267	      0.00000000	      0.00000000
     44.12814286	     -5.85492392	     -5.64797457	      6.29972233	      0.79057073	      0.92768906	      0.50302950	     12.80379271	      3.73358011	    -13.62081424	     15.61632049	     15.61632049	     10.93603441	     -5.07263134	     -4.49964442	     42.16819647	     -8.61788126	      5.13646091	     54.62804006	     54.62804006	      6.34005882	    -19.05002838	     17.24834945	    -11.21750289	      3.84934708	      1.27867014	     29.96999215	    -19.78564926	     -0.54542724	     88.93161667	     44.54117903	      0.00000000	      0.00000000	      2.08727981	     -9.55078263	    -16.53662039	     34.49351503	     46.72573753	      0.00000000	      0.00000000
     44.14142857	     -6.14440561	     -5.62356444	      6.48302842	      0.78953589	      0.92742805	      0.50272385	     12.53556362	      3.63497781	    -14.20376001	     15.32415192	     15.32415192	     11.21209691	     -4.21850188	     -4.69664843	     42.18859867	     -8.12850818	      5.29959707	     50.46958446	     50.46958446	      6.45502990	    -18.80291085	     15.94161464	    -11.17192803	      3.84223738	      1.39393714	     31.68530350	    -19.47648960	      0.20604136	     90.48520743	     44.49554833	      0.00000000	      0.00000000	      2.04516705	     -9.32011147	    -16.59107412	     33.36940638	     46.71732599	      0.00000000	      0.00000000
     44.15471429	     -6.38780467	     -5.47660720	      6.58108050	      0.78883323	      0.92716160	      0.50241964	     12.27458740	      3.48325298	    -14.26155975	     15.17633429	     15.17633429	     11.48865560	     -4.12715911	     -4.77233775	     41.87152194	     -7.57804215	      5.46874238	     46.13752393	     46.13752393	      6.91013987	    -18.27134691	     15.75277396	    -11.12478537	      3.59541505	      1.79062436	     33.16822346	    -19.15084912	      0.35339868	     91.27053686	     44.47798050	      0.00000000	      0.00000000	      1.87566177	     -9.10966330	    -16.58546773	     33.02110330	     46.70937989	      0.00000000	      0.00000000
     44.16800000	     -6.52275468	     -5.41932260	      6.68715918	      0.78851131	      0.92675668	      0.50198089	     11.92568947	      3.39309546	    -14.48208733	     15.12828188	     15.12828188	     11.84889358	     -3.75587605	     -4.88423063	     41.26491680	     -7.15734021	      5.77417577	     41.77364735	     41.77364735	      7.21129026	    -17.51039046	     14.87072209	    -11.17777377	      3.51145247	      1.82633069	     34.64504803	    -18.48447648	      0.86270883	     92.26017014	     44.44706456	      0.00000000	      0.00000000	      1.58844339	     -8.99266320	    -16.60608849	     32.32107168	     46.70069654	      0.00000000	      0.00000000
     44.18128571	     -6.67182659	     -5.42203235	      6.77628247	      0.78861686	      0.92609142	      0.50144831	     11.61617556	      3.32953323	    -14.88941636	     15.20343889	     15.20343889	     12.42732302	     -3.10912905	     -4.73465574	     40.43095902	     -6.94825908	      5.88434187	     37.24579601	     37.24579601	      6.39437173	    -16.56456407	     11.23175563	    -11.05544365	      3.52592544	      1.73918674	     36.38140638	    -17.96350253	      2.26411004	     92.55006337	     44.44643982	      0.00000000	      0.00000000	      1.41283006	     -8.80929236	    -16.94840253	     31.03847109	     46.71956474	      0.00000000	      0.00000000
     44.19457143	     -6.88584916	     -5.51943593	      6.81708135	      0.78887629	      0.92513939	      0.50093602	     11.41751060	      3.42521481	    -14.84753604	     15.30365322	     15.30365322	     12.79470756	     -3.22607007	     -4.87947307	     39.80900073	     -6.84668413	      6.06047866	     33.39792124	     33.39792124	      6.98840684	    -15.14484775	     11.48303426	    -10.86602943	      3.61511417	      2.17059903	     37.52575367	    -17.63155551	      2.29788470	     93.06436768	     44.43728986	      0.00000000	      0.00000000	      1.15005175	     -8.58092967	    -16.95773721	     30.89082706	     46.71393246	      0.00000000	      0.00000000
     44.20785714	     -6.83401298	     -5.40583225	      6.81254269	      0.78978310	      0.92454081	      0.50029659	     10.85476013	      3.32973520	    -14.72267241	     15.39895402	     15.39895402	     13.29028640	     -3.22254102	     -4.93280001	     38.70636644	     -6.73057159	      5.77012745	     29.80545709	     29.80545709	      7.51146387	    -13.54791306	     11.43959910	    -10.94646291	      3.39910047	      2.11420748	     38.60682116	    -16.72640172	      2.79822469	     93.76639771	     44.41450725	      0.00000000	      0.00000000	      0.69681058	     -8.58946580	    -17.03712142	     30.35966004	     46.71279432	      0.00000000	      0.00000000
     44.22114286	     -6.92870720	     -5.41174330	      6.81067717	      0.79086501	      0.92352792	      0.49952088	     10.46867405	      3.33195015	    -14.64510170	     15.51919276	     15.51919276	     13.76612750	     -3.28001480	     -5.02066466	     37.84609332	     -6.69596427	      5.46734751	     26.78236846	     26.78236846	      7.90995973	    -12.16064379	     11.57059385	    -10.78657803	      3.35617131	      2.26990976	     39.49612790	    -16.16278640	      3.17221945	     94.16771030	     44.39993036	      0.00000000	      0.00000000	      0.36224467	     -8.48127608	    -17.07388630	     29.99819830	     46.70957421	      0.00000000	      0.00000000
     44.23442857	     -6.90775514	     -5.47188376	      6.82370112	      0.79231546	      0.92251605	      0.49865532	      9.93757100	      3.41014684	    -14.56366223	     15.64963467	     15.64963467	     14.35356434	     -3.26931344	     -4.93593389	     36.95289416	     -6.78000684	      4.88816871	     24.38024443	     24.38024443	      8.13686440	    -10.78441454	     11.30739585	    -10.70604179	      3.37993959	      2.09484442	     40.38754763	    -15.32131166	      3.98164048	     94.40932060	     44.38504216	      0.00000000	      0.00000000	     -0.08287339	     -8.44528837	    -17.18558985	     29.34508158	     46.71229376	      0.00000000	      0.00000000
     44.24771429	     -6.99982497	     -5.54571398	      6.81536010	      0.79390208	      0.92129794	      0.49764183	      9.51921412	      3.48163344	    -14.46903223	     15.77057791	     15.77057791	     14.84558956	     -3.34258832	     -4.98303261	     36.23496652	     -6.83219651	      4.31308869	     22.54137733	     22.54137733	      8.22052340	     -9.92471964	     11.33531679	    -10.44450338	      3.39157238	      2.21709933	     40.89934238	    -14.82607641	      4.34110427	     94.62614100	     44.37450957	      0.00000000	      0.00000000	     -0.38890699	     -8.34212171	    -17.23264675	     29.03925507	     46.71202545	      0.00000000	      0.00000000
